<svg aria-hidden="true" style="position: absolute; width: 0; height: 0; overflow: hidden;" version="1.1" xmlns="http://www.w3.org/2000/svg" xmlns:xlink="http://www.w3.org/1999/xlink">
<defs>
<symbol id="youtube" viewBox="0 0 32 32">
<path fill="#c5ac2d" style="fill: var(--color1, #c5ac2d)" d="M3.797 8.743c-0.488 0-0.884-0.396-0.884-0.884v-4.061c0-0.488 0.396-0.884 0.884-0.884h4.061c0.488 0 0.884 0.396 0.884 0.884s-0.396 0.884-0.884 0.884h-3.177v3.177c0 0.488-0.396 0.884-0.884 0.884zM28.203 29.087h-4.061c-0.488 0-0.884-0.396-0.884-0.884s0.396-0.884 0.884-0.884h3.177v-3.177c0-0.488 0.396-0.884 0.884-0.884s0.884 0.396 0.884 0.884v4.061c0 0.488-0.396 0.884-0.884 0.884z"></path>
<path fill="#c5ac2d" style="fill: var(--color1, #c5ac2d)" d="M31.116 32h-30.232c-0.488 0-0.884-0.396-0.884-0.884v-30.232c0-0.488 0.396-0.884 0.884-0.884h30.232c0.488 0 0.884 0.396 0.884 0.884v30.232c0 0.488-0.396 0.884-0.884 0.884zM1.768 30.232h28.464v-28.464h-28.464v28.464z"></path>
<path fill="#fefefe" style="fill: var(--color2, #fefefe)" d="M25.455 14.026v-1.428c0-2.196-1.78-3.977-3.977-3.977h-10.957c-2.196 0-3.977 1.78-3.977 3.977v6.804c0 2.196 1.78 3.977 3.977 3.977h10.957c2.196 0 3.977-1.78 3.977-3.977v-0.868zM12.881 19.296v-6.614l6.598 3.307-6.598 3.307z"></path>
<path fill="#c5ac2d" style="fill: var(--color2, #c5ac2d)" d="M21.479 24.263h-10.957c-2.68 0-4.861-2.18-4.861-4.861v-6.804c0-2.68 2.18-4.861 4.861-4.861h10.957c2.68 0 4.861 2.18 4.861 4.861v1.428c0 0.488-0.396 0.884-0.884 0.884s-0.884-0.396-0.884-0.884v-1.428c0-1.705-1.387-3.093-3.093-3.093h-10.957c-1.705 0-3.093 1.387-3.093 3.093v6.804c0 1.705 1.387 3.093 3.093 3.093h10.957c1.705 0 3.093-1.387 3.093-3.093v-0.868c0-0.488 0.396-0.884 0.884-0.884s0.884 0.396 0.884 0.884v0.868c0 2.68-2.18 4.861-4.861 4.861zM12.881 20.18c-0 0-0 0-0 0-0.488 0-0.884-0.396-0.884-0.884 0-0 0-0 0-0v0-6.614c0-0 0-0 0-0 0-0.316 0.166-0.594 0.416-0.75l0.004-0.002c0.132-0.083 0.293-0.132 0.464-0.132 0.144 0 0.281 0.035 0.401 0.096l-0.005-0.002 6.598 3.307c0.292 0.149 0.488 0.446 0.488 0.79s-0.196 0.642-0.483 0.788l-0.005 0.002-6.598 3.307c-0.115 0.059-0.252 0.094-0.396 0.094-0 0-0 0-0 0v0zM13.765 14.114v3.75l3.741-1.875-3.741-1.875z"></path>
</symbol>
<symbol id="telegram" viewBox="0 0 32 32">
<path fill="#c5ac2d" style="fill: var(--color1, #c5ac2d)" d="M3.798 8.743c-0.488 0-0.884-0.396-0.884-0.884v-4.061c0-0.488 0.396-0.884 0.884-0.884h4.061c0.488 0 0.884 0.396 0.884 0.884s-0.396 0.884-0.884 0.884h-3.177v3.177c0 0.488-0.396 0.884-0.884 0.884zM28.202 29.087h-4.061c-0.488 0-0.884-0.396-0.884-0.884s0.396-0.884 0.884-0.884h3.177v-3.177c0-0.488 0.396-0.884 0.884-0.884s0.884 0.396 0.884 0.884v4.061c0 0.488-0.396 0.884-0.884 0.884z"></path>
<path fill="#c5ac2d" style="fill: var(--color1, #c5ac2d)" d="M31.116 32h-30.232c-0.488 0-0.884-0.396-0.884-0.884v-30.232c0-0.488 0.396-0.884 0.884-0.884h30.232c0.488 0 0.884 0.396 0.884 0.884v30.232c0 0.488-0.396 0.884-0.884 0.884zM1.768 30.232h28.464v-28.464h-28.464v28.464z"></path>
<path fill="#fefefe" style="fill: var(--color2, #fefefe)" d="M23.83 17.982c0.925-4.633 1.903-10.11 1.791-10.304-0.198-0.339-19.251 7.192-19.251 7.192l4.928 2.597s2.086 5.53 2.455 5.623c0.264 0.067 2.978-2.363 2.978-2.363l5.646 3.607zM17.129 15.463l-2.161 3.277-1.371-3.28 8.722-3.835-5.191 3.839z"></path>
<path fill="#c5ac2d" style="fill: var(--color2, #c5ac2d)" d="M22.375 25.217c-0.163 0-0.328-0.045-0.475-0.139l-5.084-3.248c-0.22 0.195-0.515 0.45-0.813 0.702l-0.094 0.078c-1.488 1.253-1.866 1.466-2.374 1.338-0.482-0.122-0.723-0.541-1.124-1.402-0.225-0.483-0.509-1.145-0.844-1.968-0.405-0.994-0.79-1.992-0.978-2.484l-4.632-2.441c-0.283-0.151-0.472-0.445-0.472-0.782 0-0.371 0.229-0.689 0.553-0.82l0.006-0.002c0.048-0.019 4.822-1.905 9.559-3.726 2.785-1.071 5.014-1.91 6.624-2.494 0.963-0.35 1.716-0.612 2.239-0.78 0.3-0.096 0.527-0.163 0.697-0.204 0.578-0.14 0.989-0.010 1.221 0.389 0.192 0.33 0.244 0.418-0.399 4.085-0.349 1.988-0.83 4.544-1.288 6.837-0.096 0.479-0.561 0.789-1.040 0.694s-0.789-0.561-0.694-1.040c0.747-3.744 1.372-7.212 1.641-8.948-2.828 0.957-10.41 3.882-16.118 6.126l3.223 1.699c0.19 0.102 0.336 0.266 0.413 0.464l0.002 0.006c0.651 1.726 1.448 3.699 1.915 4.702 0.559-0.442 1.393-1.155 2.101-1.789 0.156-0.14 0.363-0.225 0.59-0.225 0.177 0 0.341 0.052 0.479 0.141l-0.003-0.002 5.646 3.607c0.411 0.263 0.532 0.809 0.269 1.221-0.169 0.264-0.454 0.408-0.746 0.408zM14.969 19.624c-0 0-0 0-0 0-0.365 0-0.679-0.221-0.813-0.537l-0.002-0.006-1.371-3.28c-0.186-0.445 0.019-0.956 0.46-1.15l8.722-3.835c0.412-0.181 0.895-0.024 1.121 0.366 0.075 0.127 0.119 0.28 0.119 0.444 0 0.29-0.14 0.548-0.356 0.709l-0.002 0.002-5.065 3.745-2.074 3.146c-0.16 0.241-0.431 0.397-0.738 0.397v0zM14.748 15.92l0.396 0.948 1.042-1.581-1.438 0.632z"></path>
</symbol>
<symbol id="play-ico" viewBox="0 0 32 32">
<path fill="#fefefe" style="fill: var(--color1, #fefefe)" d="M15.966 0.001c-8.84 0-15.966 7.126-15.966 15.966s7.126 16.033 15.966 16.033c8.84 0 16.1-7.193 16.1-16.033s-7.26-15.966-16.1-15.966zM15.966 2.051c7.672 0 13.915 6.243 13.915 13.916s-6.243 13.915-13.916 13.915c-7.672 0-13.915-6.243-13.915-13.915s6.243-13.916 13.916-13.916zM10.229 6.028v19.882l17.156-9.944-17.156-9.938z"></path>
</symbol>
<symbol id="facebook" viewBox="0 0 32 32">
<path fill="#c5ac2d" style="fill: var(--color1, #c5ac2d)" d="M3.798 8.743c-0.488 0-0.884-0.396-0.884-0.884v-4.061c0-0.488 0.396-0.884 0.884-0.884h4.061c0.488 0 0.884 0.396 0.884 0.884s-0.396 0.884-0.884 0.884h-3.177v3.177c0 0.488-0.396 0.884-0.884 0.884zM28.202 29.087h-4.061c-0.488 0-0.884-0.396-0.884-0.884s0.396-0.884 0.884-0.884h3.177v-3.177c0-0.488 0.396-0.884 0.884-0.884s0.884 0.396 0.884 0.884v4.061c0 0.488-0.396 0.884-0.884 0.884z"></path>
<path fill="#c5ac2d" style="fill: var(--color1, #c5ac2d)" d="M31.116 32h-30.232c-0.488 0-0.884-0.396-0.884-0.884v-30.232c0-0.488 0.396-0.884 0.884-0.884h30.232c0.488 0 0.884 0.396 0.884 0.884v30.232c0 0.488-0.396 0.884-0.884 0.884zM1.768 30.232h28.464v-28.464h-28.464v28.464z"></path>
<path fill="#fefefe" style="fill: var(--color2, #fefefe)" d="M17.409 17.065h4.226v-4.226h-4.226v-1.684c0-0.68 0.436-1.134 0.81-1.134h3.416v-4.226h-3.416c-2.622 0-4.755 2.557-4.755 5.397v1.647h-3.099v4.226h3.1v9.139h3.944v-5.431z"></path>
<path fill="#c5ac2d" style="fill: var(--color2, #c5ac2d)" d="M17.409 27.088h-3.944c-0.488 0-0.884-0.396-0.884-0.884v-8.255h-2.216c-0.488 0-0.884-0.396-0.884-0.884v-4.226c0-0.488 0.396-0.884 0.884-0.884h2.216v-0.763c0-3.405 2.582-6.281 5.638-6.281h3.416c0.488 0 0.884 0.396 0.884 0.884v4.226c0 0.488-0.396 0.884-0.884 0.884h-3.284c-0.027 0.046-0.058 0.129-0.058 0.25v0.8h3.342c0.488 0 0.884 0.396 0.884 0.884v4.226c0 0.488-0.396 0.884-0.884 0.884h-4.226c-0.488 0-0.884-0.396-0.884-0.884s0.396-0.884 0.884-0.884h3.342v-2.458h-3.342c-0.488 0-0.884-0.396-0.884-0.884v-1.684c0-1.113 0.76-2.018 1.694-2.018h2.532v-2.458h-2.532c-2.062 0-3.87 2.109-3.87 4.513v1.647c0 0.488-0.396 0.884-0.884 0.884h-2.216v2.458h2.216c0.488 0 0.884 0.396 0.884 0.884v8.255h2.176v-4.547c0-0.488 0.396-0.884 0.884-0.884s0.884 0.396 0.884 0.884v5.431c-0 0.488-0.396 0.884-0.884 0.884z"></path>
</symbol>
</defs>
</svg>
